<?xml version="1.0" encoding="utf-8"?>
<svg xmlns="http://www.w3.org/2000/svg" viewBox="2.3614 4.06 270.1226 238.1646" width="270.123px" height="238.165px">
  <g fill="#0992c2" style="" transform="matrix(1, 0, 0, 1, -1.4210854715202004e-14, 0)">
    <path d="M202.10 241.93 c-4.64 -0.59 -11.71 -2.16 -16.26 -3.69 -10.14 -3.33 -23.88 -11.35 -35.59 -20.77 -7.66 -6.17 -10.54 -8.79 -23.16 -20.99 -28.88 -27.84 -43.52 -47.08 -51.99 -68.03 -4.64 -11.62 -6.94 -26.67 -5.77 -38.02 2.93 -28.88 19.51 -54.87 45.10 -70.69 8.24 -5.14 21.04 -10.14 32.44 -12.70 1.62 -0.36 3.74 -0.90 4.73 -1.13 2.39 -0.68 17.25 -1.85 23.25 -1.85 12.03 0 24.82 2.52 35.50 7.07 26.18 11.17 45.55 34.87 56.59 69.25 4.01 12.43 5.86 24.51 5.50 35.86 -0.32 9.87 -1.49 12.98 -6.62 17.71 l-2.75 2.57 -3.06 0 c-7.57 0 -11.76 -4.23 -9.82 -9.87 0.41 -1.13 1.26 -3.56 1.89 -5.36 5.86 -16.53 -3.47 -50.73 -19.69 -72.35 -3.56 -4.69 -10.90 -11.94 -15.59 -15.27 -7.16 -5.14 -16.98 -9.33 -26.67 -11.44 -3.11 -0.68 -5.72 -0.81 -13.97 -0.77 -12.98 0.05 -18.65 0.99 -31.31 5.23 -3.96 1.31 -13.43 6.04 -16.67 8.29 -1.58 1.08 -3.06 1.98 -3.33 1.98 -0.27 0 -1.85 1.26 -3.51 2.84 -1.71 1.53 -4.05 3.69 -5.32 4.82 -2.97 2.66 -6.71 7.07 -9.78 11.49 -6.76 9.78 -10.72 19.15 -13.29 31.31 -1.17 5.50 -1.17 21.13 0 26.58 3.87 17.98 13.20 33.02 34.51 55.77 6.31 6.67 19.82 19.64 27.75 26.49 16.94 14.69 28.83 21.44 44.15 25 2.97 0.68 6.22 0.99 12.16 1.17 l8.11 0.23 4.46 -1.49 c7.07 -2.34 12.70 -6.53 15.72 -11.71 1.98 -3.42 2.66 -6.62 2.48 -12.03 -0.14 -5.59 0.27 -6.67 3.24 -8.20 2.16 -1.13 8.33 -1.26 10.27 -0.27 3.02 1.58 4.82 4.64 5.50 9.28 1.04 7.43 -1.53 17.12 -6.44 24.33 -2.34 3.38 -8.83 9.82 -10.99 10.86 -1.08 0.54 -2.52 1.40 -3.20 1.94 -1.26 0.99 -2.88 1.85 -6.40 3.33 -1.85 0.81 -3.65 1.35 -8.79 2.84 -2.25 0.63 -19.19 0.95 -23.38 0.41z"/>
    <path d="M86.18 199.18 c-3.87 -1.31 -8.79 -5.41 -16.31 -13.56 -20.14 -21.85 -33.52 -46.09 -37.84 -68.66 -2.61 -13.34 -0.32 -19.01 7.84 -19.55 3.02 -0.18 3.51 -0.09 5.36 0.99 1.13 0.68 2.34 1.76 2.70 2.48 0.36 0.68 0.90 3.38 1.17 5.95 2.12 20.90 15.41 45.41 36.85 68.03 2.25 2.34 5.81 5.77 7.93 7.61 2.12 1.80 4.42 4.10 5.09 5.09 2.43 3.47 1.26 8.29 -2.70 11.31 -1.31 0.99 -1.98 1.17 -4.64 1.17 -1.76 -0.05 -4.10 -0.36 -5.45 -0.86z"/>
    <path d="M40.64 197.10 c-11.13 -5.18 -27.93 -26.54 -34.55 -43.93 -3.60 -9.42 -4.60 -15.90 -2.97 -18.92 1.31 -2.52 3.24 -3.38 7.48 -3.38 5.72 0 7.07 1.40 9.42 9.69 4.42 15.59 14.69 31.31 27.80 42.62 4.69 4.05 5.81 5.54 5.81 7.84 0 1.85 -0.59 2.97 -2.84 5.32 -1.80 1.85 -1.94 1.89 -4.82 1.89 -2.16 0 -3.56 -0.32 -5.32 -1.13z"/>
    <path d="M219.63 181.60 c-4.14 -1.04 -7.03 -3.56 -10.50 -9.19 -4.05 -6.62 -7.16 -8.65 -16.17 -10.45 -8.29 -1.67 -11.62 -2.84 -15.36 -5.32 -5.63 -3.78 -10.18 -10.27 -12.25 -17.44 -1.40 -4.87 -1.71 -12.75 -0.68 -17.39 1.58 -7.25 4.78 -12.84 10.32 -18.07 6.35 -6.08 13.92 -9.37 27.53 -12.07 4.19 -0.81 8.02 -1.67 8.47 -1.80 1.04 -0.41 0.99 -1.31 -0.36 -5.63 -3.47 -10.95 -9.37 -19.15 -16.58 -23.16 -4.91 -2.70 -8.11 -3.42 -15.41 -3.42 -5.36 0 -7.16 0.18 -10.86 1.13 -5.32 1.35 -11.62 4.42 -15.41 7.48 -1.53 1.22 -2.93 2.21 -3.15 2.21 -0.23 0 -1.67 1.31 -3.20 2.93 -7.84 8.42 -13.02 19.19 -14.51 30.27 -0.68 5.27 -0.27 14.46 0.95 20.41 2.07 10.36 6.49 20.86 11.49 27.35 1.35 1.80 2.48 3.42 2.48 3.65 0 0.23 -0.50 0.86 -1.08 1.40 -4.23 3.96 -16.49 -6.85 -23.47 -20.68 -1.94 -3.87 -4.51 -11.17 -5.45 -15.63 -1.08 -5.18 -1.35 -16.44 -0.45 -21.99 2.97 -19.46 14.15 -36.31 31.13 -46.94 4.55 -2.84 11.58 -5.50 18.97 -7.07 4.91 -1.08 17.89 -0.99 22.30 0.14 10.59 2.70 18.61 7.70 26.54 16.49 7.43 8.24 13.47 20.54 14.91 30.41 1.17 7.97 -0.50 13.07 -5.90 18.20 -1.76 1.62 -3.38 2.97 -3.60 2.97 -0.23 0 -1.49 0.63 -2.79 1.44 -1.31 0.77 -2.79 1.62 -3.29 1.89 -4.96 2.84 -6.35 3.78 -7.84 5.59 -6.22 7.25 -6.44 17.03 -0.63 23.52 2.52 2.79 4.64 3.92 11.62 6.08 13.34 4.14 19.19 9.46 19.91 18.07 0.36 4.64 -0.63 7.75 -3.60 10.86 -3.29 3.47 -4.87 4.19 -9.19 4.14 -1.94 -0.05 -4.10 -0.18 -4.87 -0.36z"/>
  </g>
</svg>